<?xml version="1.0" standalone="no"?>
<!DOCTYPE svg PUBLIC "-//W3C//DTD SVG 20010904//EN"
 "http://www.w3.org/TR/2001/REC-SVG-20010904/DTD/svg10.dtd">
<svg version="1.0" xmlns="http://www.w3.org/2000/svg"
 width="512.000000pt" height="512.000000pt" viewBox="0 0 512.000000 512.000000"
 preserveAspectRatio="xMidYMid meet">

<g transform="translate(0.000000,512.000000) scale(0.100000,-0.100000)"
fill="#000000" stroke="none">
<path d="M463 3520 c-49 -22 -50 -29 -33 -139 13 -75 41 -135 75 -157 45 -30
139 -29 245 1 52 15 109 35 125 45 17 9 44 20 61 23 l32 6 6 -77 c4 -42 11
-90 16 -107 12 -38 30 -258 33 -390 2 -71 -4 -134 -20 -217 -27 -139 -30 -284
-8 -402 26 -134 33 -152 75 -190 77 -69 164 -41 205 67 37 97 -10 412 -94 637
-16 42 -20 78 -20 155 0 106 16 221 33 244 13 16 55 186 56 222 0 14 2 28 5
31 3 3 67 -7 143 -22 141 -29 366 -47 421 -35 17 4 31 13 31 21 0 8 7 17 15
20 8 4 15 13 15 22 0 8 7 23 15 32 12 13 13 23 3 51 -6 19 -12 40 -14 47 -6
20 -93 70 -137 77 -23 4 -54 14 -69 21 -33 17 -171 37 -197 29 -11 -3 -35 -19
-55 -34 -23 -18 -53 -31 -85 -35 -56 -7 -73 -21 -39 -32 21 -6 21 -7 3 -20
-26 -19 -102 -18 -113 2 -7 13 -195 84 -222 84 -5 0 -12 -9 -15 -21 -6 -18
-12 -20 -48 -14 -23 4 -49 13 -57 20 -15 13 -119 30 -153 26 -9 -1 -20 5 -23
13 -9 25 -155 22 -211 -4z m647 -780 c0 -211 -11 -276 -24 -133 -8 100 -8 328
1 336 19 20 23 -11 23 -203z"/>
<path d="M2765 3530 c-7 -12 18 -183 52 -350 14 -69 32 -165 40 -215 19 -131
36 -473 28 -595 -12 -203 0 -321 42 -407 28 -56 50 -71 122 -78 32 -3 50 -11
65 -29 23 -28 63 -46 102 -46 46 0 166 70 229 134 52 52 68 78 112 181 70 166
202 467 213 486 5 9 6 26 3 38 -3 13 -1 21 7 21 17 0 4 183 -21 273 -43 160
-192 314 -404 418 -153 74 -453 175 -477 160 -12 -8 -27 -6 -52 4 -42 18 -53
18 -61 5z m818 -351 c67 -73 110 -134 106 -148 -4 -11 -189 185 -189 200 0 24
34 3 83 -52z m-401 30 c79 -17 219 -92 280 -152 29 -29 65 -75 80 -102 26 -49
30 -76 29 -205 0 -14 0 -48 1 -76 1 -54 -42 -216 -73 -274 -24 -45 -75 -100
-92 -100 -8 0 -30 -11 -49 -24 -44 -30 -100 -48 -121 -40 -9 3 -29 -4 -46 -17
-16 -12 -36 -19 -43 -16 -15 5 -30 59 -48 172 -7 39 -18 84 -27 101 -8 17 -13
37 -11 45 1 8 -7 30 -19 49 -33 55 -43 105 -51 260 -8 150 -2 210 33 315 9 28
19 56 21 63 4 15 65 16 136 1z m-221 -464 c6 -71 13 -152 14 -180 2 -27 7 -83
11 -122 5 -52 3 -73 -5 -73 -6 0 -11 12 -11 28 0 15 -5 43 -11 62 -15 52 -49
351 -43 377 4 13 1 51 -6 86 -10 50 -10 71 0 107 l13 45 13 -100 c7 -55 19
-158 25 -230z"/>
<path d="M1859 2991 c-38 -38 -39 -41 -40 -112 -1 -41 -1 -92 0 -114 2 -25
-14 -88 -39 -165 -38 -113 -42 -135 -42 -225 -1 -197 97 -395 218 -441 52 -20
166 -14 255 12 78 23 243 109 288 149 58 53 112 163 136 278 3 15 10 25 14 22
33 -20 -3 237 -44 315 -29 57 -104 157 -137 185 -75 63 -209 111 -274 99 -27
-5 -34 -11 -34 -30 0 -27 -7 -30 -29 -11 -17 14 -196 77 -220 77 -7 0 -31 -17
-52 -39z m413 -251 c75 -20 109 -44 145 -103 34 -54 35 -59 36 -159 0 -57 -3
-122 -8 -146 -14 -78 -176 -244 -251 -258 -48 -9 -107 12 -156 55 -50 45 -108
144 -108 187 0 16 -7 48 -17 72 -14 38 -15 51 -3 114 16 82 44 122 92 132 24
5 56 30 113 89 l80 83 17 -28 c11 -18 32 -31 60 -38z"/>
<path d="M3999 2991 c-38 -38 -39 -41 -40 -112 -1 -41 -1 -92 0 -114 1 -24
-14 -91 -40 -170 -38 -117 -42 -140 -42 -227 1 -105 13 -156 69 -275 54 -113
134 -173 236 -173 133 0 374 95 462 183 51 51 111 168 124 242 5 30 13 49 20
48 30 -7 0 231 -39 309 -80 157 -204 262 -339 288 -71 13 -110 4 -110 -26 0
-28 -3 -29 -33 -10 -21 14 -201 76 -220 76 -5 0 -27 -17 -48 -39z m413 -251
c76 -18 111 -42 144 -97 17 -29 34 -70 38 -90 9 -57 7 -163 -4 -197 -5 -17
-12 -42 -14 -57 -8 -36 -148 -183 -199 -208 -53 -26 -90 -26 -142 -2 -75 34
-165 157 -165 225 0 16 -7 50 -17 74 -14 38 -15 51 -3 114 16 82 44 122 92
132 24 5 56 30 113 89 l80 83 17 -28 c12 -18 31 -30 60 -38z"/>
</g>
</svg>
